<?xml version="1.0" standalone="no"?><!DOCTYPE svg PUBLIC "-//W3C//DTD SVG 1.1//EN" "http://www.w3.org/Graphics/SVG/1.1/DTD/svg11.dtd"><svg t="1641645772185" class="icon" viewBox="0 0 1024 1024" version="1.1" xmlns="http://www.w3.org/2000/svg" p-id="3630" width="16" height="16" xmlns:xlink="http://www.w3.org/1999/xlink"><defs><style type="text/css"></style></defs><path d="M460.047059 816.941176l0.752941-88.094117c0-2.258824 2.258824-4.517647 4.517647-4.517647l73.035294 0.752941c2.258824 0 4.517647 2.258824 4.517647 4.517647l-1.505882 143.811765c0 2.258824-2.258824 4.517647-4.517647 4.517647l-73.035294-0.752941c-2.258824 0-4.517647-2.258824-4.517647-4.517647v-34.635295" fill="#AC7F4A" p-id="3631"></path><path d="M780.8 755.952941c-57.223529 49.694118-112.941176 17.317647-130.258824 5.270588-3.011765-2.258824-7.529412-2.258824-11.294117 0-64.752941 45.176471-109.176471 13.552941-124.235294-0.752941-3.011765-3.011765-8.282353-3.764706-12.047059-0.752941-64.752941 45.929412-114.447059 8.282353-131.011765-6.776471-3.764706-3.011765-9.035294-3.764706-12.047059-0.752941-57.976471 44.423529-118.964706 18.070588-150.588235-1.505882-7.529412-4.517647-5.270588-15.811765 3.011765-17.317647 44.423529-10.541176 82.070588-58.729412 98.635294-81.317647-15.811765-6.023529-27.858824-15.811765-35.388235-24.094118-6.023529-6.776471-5.270588-17.317647 2.258823-22.588235 39.152941-27.105882 65.505882-64 78.305882-85.082353-12.047059-2.258824-21.835294-6.776471-30.117647-12.8-13.552941-9.035294-13.552941-29.364706 0-39.152941 34.635294-24.847059 63.247059-57.976471 79.058824-76.8-4.517647-1.505882-9.035294-3.011765-12.047059-6.02353-11.294118-7.529412-11.294118-24.094118-0.752941-32.37647l24.094118-21.835294 2.258823-2.258824c33.882353-34.635294 56.470588-69.270588 70.02353-95.623529 7.529412-15.058824 29.364706-15.058824 36.894117 0 27.105882 51.952941 71.529412 101.647059 94.117647 126.494117 9.035294 9.035294 7.529412 24.847059-3.764706 31.62353-3.764706 2.258824-8.282353 4.517647-12.047058 6.023529 18.070588 36.141176 48.188235 60.235294 70.77647 74.541177 16.564706 10.541176 14.305882 34.635294-3.011765 42.164706-10.541176 4.517647-21.082353 6.023529-30.870588 6.023529 3.764706 18.070588 12.8 34.635294 24.094118 48.188235l9.788235 11.294118c15.811765 16.564706 34.635294 28.611765 47.435294 36.894118 9.788235 6.023529 9.788235 19.576471 0 25.6-17.317647 10.541176-34.635294 12.8-50.447059 12.047058v0.752942c24.094118 45.176471 81.317647 74.541176 106.917647 85.835294 6.776471 2.258824 8.282353 10.541176 2.258824 15.058823z" fill="#028836" p-id="3632"></path><path d="M536.094118 204.047059c-0.752941 0.752941-1.505882 2.258824-1.505883 3.764706l4.517647 29.364706c0.752941 3.764706-3.011765 6.023529-6.77647 4.517647l-25.6-14.305883c-0.752941 0-1.505882-0.752941-2.258824-0.752941-0.752941 0-1.505882 0-2.258823 0.752941L476.611765 240.941176c-3.011765 1.505882-6.776471-1.505882-6.02353-4.517647l5.270589-29.364705c0-1.505882 0-3.011765-1.505883-3.764706l-21.082353-21.082353c-2.258824-2.258824-1.505882-6.776471 2.258824-7.529412l29.364706-3.764706c1.505882 0 3.011765-0.752941 3.011764-2.258823l13.552942-26.352942c0.752941-1.505882 2.258824-2.258824 3.764705-2.258823s3.011765 0.752941 3.764706 2.258823l12.8 26.352942c0.752941 1.505882 1.505882 2.258824 3.011765 2.258823l29.364706 4.517647c3.764706 0.752941 5.270588 5.270588 2.258823 7.529412l-20.329411 21.082353z" fill="#F4AD33" p-id="3633"></path><path d="M434.447059 333.552941c-1.505882 0-2.258824-0.752941-2.258824-2.258823 0-1.505882 0.752941-2.258824 2.258824-2.258824 1.505882 0 2.258824 0.752941 2.258823 2.258824 0.752941 0.752941-0.752941 2.258824-2.258823 2.258823z m-9.788235 0c-1.505882 0-2.258824-1.505882-2.258824-2.258823 0-1.505882 1.505882-2.258824 2.258824-2.258824 1.505882 0 2.258824 1.505882 2.258823 2.258824 0 0.752941-0.752941 2.258824-2.258823 2.258823z m17.317647-3.011765c0-1.505882 0.752941-2.258824 2.258823-2.258823 1.505882 0 2.258824 0.752941 2.258824 2.258823 0 1.505882-0.752941 2.258824-2.258824 2.258824-0.752941 0.752941-2.258824-0.752941-2.258823-2.258824z m-29.364706 0c0-1.505882 1.505882-2.258824 2.258823-2.258823 1.505882 0 2.258824 1.505882 2.258824 2.258823 0 1.505882-1.505882 2.258824-2.258824 2.258824-1.505882 0-2.258824-0.752941-2.258823-2.258824z m39.152941 0c0-1.505882 0.752941-2.258824 2.258823-2.258823 1.505882 0 2.258824 0.752941 2.258824 2.258823 0 1.505882-0.752941 2.258824-2.258824 2.258824-0.752941 0-2.258824-0.752941-2.258823-2.258824z m10.541176-0.752941c0-1.505882 0.752941-2.258824 2.258824-3.011764 1.505882 0 2.258824 0.752941 3.011765 2.258823 0 1.505882-0.752941 2.258824-2.258824 2.258824-2.258824 0.752941-3.011765 0-3.011765-1.505883z m9.788236-0.752941c0-1.505882 0.752941-2.258824 2.258823-3.011765 1.505882 0 2.258824 0.752941 3.011765 2.258824 0 1.505882-0.752941 2.258824-2.258824 2.258823-2.258824 0.752941-3.011765 0-3.011764-1.505882z m9.788235-1.505882c0-1.505882 0.752941-2.258824 2.258823-3.011765 1.505882 0 2.258824 0.752941 3.011765 2.258824v0.752941c0 1.505882-0.752941 2.258824-2.258823 2.258823-2.258824 0-3.011765-0.752941-3.011765-2.258823z m9.788235-1.505883c0-1.505882 0.752941-2.258824 2.258824-3.011764 1.505882 0 2.258824 0.752941 3.011764 2.258823v0.752941c0 1.505882-0.752941 2.258824-2.258823 2.258824h-0.752941c-0.752941 0-2.258824-0.752941-2.258824-2.258824z m9.788236-1.505882c0-1.505882 0.752941-3.011765 2.258823-3.011765 1.505882 0 3.011765 0.752941 3.011765 2.258824v0.752941c0 1.505882-0.752941 2.258824-2.258824 2.258824h-0.752941c-0.752941 0-2.258824-0.752941-2.258823-2.258824z m9.788235-1.505882c0-0.752941 0-0.752941 0 0 0-1.505882 0.752941-3.011765 2.258823-3.011765 1.505882 0 2.258824 0.752941 3.011765 2.258824v0.752941c0 1.505882-0.752941 2.258824-2.258823 2.258823h-0.752942c-1.505882-0.752941-2.258824-1.505882-2.258823-2.258823z m9.788235-2.258824c0-0.752941 0-0.752941 0 0 0-1.505882 0.752941-3.011765 1.505882-3.011765 1.505882 0 3.011765 0.752941 3.011765 1.505883v0.752941c0 0.752941-0.752941 2.258824-1.505882 2.258824H523.294118c-1.505882 0-2.258824-0.752941-2.258824-1.505883z m9.035294-3.011765s0-0.752941 0 0c0-1.505882 0.752941-3.011765 1.505883-3.011764 1.505882-0.752941 3.011765 0 3.011764 1.505882v0.752941c0 0.752941-0.752941 2.258824-1.505882 2.258824h-0.752941c-0.752941 0.752941-1.505882 0-2.258824-1.505883z m9.788236-3.011764v-0.752941c0-0.752941 0.752941-2.258824 1.505882-2.258824 1.505882-0.752941 3.011765 0 3.011765 1.505882v0.752942c0 0.752941-0.752941 2.258824-1.505883 2.258823h-0.752941c-0.752941 0-2.258824 0-2.258823-1.505882z m9.035294-3.011765v-0.752941c0-0.752941 0.752941-2.258824 1.505882-2.258824 1.505882-0.752941 3.011765 0 3.011765 1.505883v0.752941c0 0.752941-0.752941 2.258824-1.505883 2.258823h-0.752941c-0.752941 0-1.505882-0.752941-2.258823-1.505882z m9.788235-3.764706v-0.752941c0-0.752941 0.752941-2.258824 1.505882-2.258824 1.505882-0.752941 3.011765 0 3.011765 1.505883v0.752941c0 0.752941-0.752941 2.258824-1.505882 2.258824H560.941176c-1.505882 0-2.258824-0.752941-2.258823-1.505883z m9.035294-4.517647v-1.505882c0-0.752941 0.752941-1.505882 1.505882-2.258824 1.505882-0.752941 3.011765 0 3.011765 0.752941v0.752942c0 0.752941-0.752941 1.505882-1.505882 2.258823h-1.505883c-0.752941 1.505882-1.505882 0.752941-1.505882 0zM616.658824 423.905882c0-1.505882 0.752941-2.258824 2.258823-2.258823 1.505882 0 2.258824 0.752941 2.258824 2.258823 0 1.505882-1.505882 2.258824-2.258824 2.258824-0.752941 0.752941-2.258824-0.752941-2.258823-2.258824z m-7.529412 2.258824c-1.505882 0-2.258824-1.505882-2.258824-2.258824 0-1.505882 1.505882-2.258824 2.258824-2.258823 1.505882 0 2.258824 0.752941 2.258823 2.258823 0.752941 1.505882-0.752941 2.258824-2.258823 2.258824z m-9.788236 0c-1.505882 0-2.258824-1.505882-2.258823-2.258824 0-1.505882 1.505882-2.258824 2.258823-2.258823 1.505882 0 2.258824 1.505882 2.258824 2.258823 0 1.505882-0.752941 2.258824-2.258824 2.258824z m-9.788235-0.752941c-1.505882 0-2.258824-1.505882-2.258823-2.258824 0-1.505882 1.505882-2.258824 3.011764-2.258823s2.258824 1.505882 2.258824 2.258823c-0.752941 1.505882-1.505882 2.258824-3.011765 2.258824z m-9.788235-1.505883c-1.505882 0-2.258824-1.505882-2.258824-2.258823v-0.752941c0-1.505882 1.505882-2.258824 3.011765-2.258824s2.258824 1.505882 2.258824 2.258824c-0.752941 2.258824-1.505882 3.011765-3.011765 3.011764z m-10.541177-0.752941c-1.505882 0-2.258824-1.505882-2.258823-2.258823v-0.752942c0-1.505882 1.505882-2.258824 3.011765-2.258823s2.258824 1.505882 2.258823 2.258823v0.752942c0 0.752941-0.752941 2.258824-3.011765 2.258823 0.752941 0 0.752941 0 0 0z m-9.788235-2.258823c-1.505882 0-2.258824-1.505882-2.258823-2.258824v-0.752941c0-1.505882 1.505882-2.258824 3.011764-2.258824s2.258824 1.505882 2.258824 2.258824v0.752941c0 1.505882-1.505882 2.258824-3.011765 2.258824 0.752941 0 0.752941 0 0 0z m-9.788235-1.505883c-1.505882 0-2.258824-1.505882-2.258824-2.258823v-0.752941c0-1.505882 1.505882-2.258824 3.011765-2.258824s2.258824 1.505882 2.258824 2.258824v0.752941c0 1.505882-1.505882 2.258824-3.011765 2.258823 0.752941 0 0.752941 0 0 0z m-9.788235-2.258823c-0.752941 0-2.258824-1.505882-2.258824-2.258824V414.117647c0-1.505882 1.505882-2.258824 3.011765-1.505882 1.505882 0 2.258824 1.505882 2.258823 2.258823v0.752941c0 0.752941-0.752941 1.505882-3.011764 1.505883 0.752941 0 0.752941 0 0 0z m-9.788236-3.011765c-0.752941 0-1.505882-1.505882-1.505882-2.258823v-0.752942c0.752941-1.505882 1.505882-2.258824 3.011765-1.505882 0.752941 0 1.505882 1.505882 1.505882 2.258824v0.752941c0 1.505882-0.752941 2.258824-3.011765 1.505882 0.752941 0.752941 0.752941 0.752941 0 0z m-9.035294-2.258823c-0.752941 0-1.505882-1.505882-1.505882-2.258824v-0.752941c0.752941-1.505882 1.505882-2.258824 3.011764-1.505883 0.752941 0 1.505882 1.505882 1.505883 2.258824v0.752941c-0.752941 0.752941-1.505882 1.505882-3.011765 1.505883z m-9.788235-3.011765c-0.752941 0-1.505882-1.505882-1.505883-2.258824v-0.752941c0.752941-1.505882 1.505882-2.258824 3.011765-1.505882 0.752941 0 1.505882 1.505882 1.505883 2.258823v0.752941c0 0.752941-1.505882 1.505882-2.258824 1.505883h-0.752941z m-9.035294-3.764706c-0.752941 0-1.505882-1.505882-1.505883-2.258824v-0.752941c0.752941-1.505882 2.258824-2.258824 3.011765-1.505882 0.752941 0 1.505882 1.505882 1.505882 2.258823v0.752942c-0.752941 0.752941-1.505882 1.505882-2.258823 1.505882-0.752941 0.752941-0.752941 0.752941-0.752941 0z m-9.788236-3.011765c-0.752941-0.752941-1.505882-1.505882-1.505882-2.258823V399.058824c0.752941-1.505882 2.258824-2.258824 3.011765-1.505883 0.752941 0 1.505882 1.505882 1.505882 2.258824v0.752941c-0.752941 0.752941-1.505882 1.505882-2.258823 1.505882h-0.752942z m-9.035294-3.764706c-0.752941-0.752941-1.505882-1.505882-1.505882-2.258823v-0.752941c0.752941-1.505882 2.258824-2.258824 3.011765-1.505883 0.752941 0.752941 1.505882 1.505882 1.505882 2.258824v0.752941c-0.752941 0.752941-1.505882 1.505882-2.258824 1.505882h-0.752941z m-9.035294-4.517647c-0.752941-0.752941-1.505882-1.505882-1.505882-2.258823v-0.752941c0.752941-1.505882 2.258824-1.505882 3.011765-1.505883 0.752941 0.752941 1.505882 1.505882 1.505882 2.258824v0.752941c-0.752941 0.752941-1.505882 1.505882-2.258824 1.505882 0 0.752941-0.752941 0.752941-0.752941 0z m-9.035294-3.764706c-0.752941-0.752941-1.505882-1.505882-1.505882-2.258823v-0.752941c0.752941-1.505882 2.258824-1.505882 3.011764-1.505883 0.752941 0.752941 1.505882 1.505882 1.505883 2.258824v0.752941c-0.752941 0.752941-1.505882 1.505882-2.258824 1.505882h-0.752941z m-9.035294-4.517647c-0.752941-0.752941-1.505882-1.505882-1.505882-2.258823v-1.505883c0.752941-1.505882 2.258824-1.505882 3.011764-0.752941 0.752941 0.752941 1.505882 1.505882 1.505883 2.258824v1.505882c-0.752941 0.752941-1.505882 1.505882-2.258824 1.505883 0-0.752941-0.752941-0.752941-0.752941-0.752942z m-9.035294-5.270588c-0.752941-0.752941-1.505882-1.505882-1.505883-2.258823V376.470588c0.752941-1.505882 2.258824-1.505882 3.011765-0.752941 0.752941 0.752941 1.505882 1.505882 1.505883 2.258824v1.505882c-0.752941 0.752941-1.505882 1.505882-2.258824 1.505882l-0.752941-0.752941z m-8.282353-4.517647c-0.752941-0.752941-1.505882-1.505882-1.505882-2.258823v-1.505883c0.752941-1.505882 2.258824-1.505882 3.011764-0.752941 0.752941 0.752941 1.505882 1.505882 1.505883 2.258824v1.505882c-0.752941 0.752941-1.505882 1.505882-2.258824 1.505882 0-0.752941-0.752941-0.752941-0.752941-0.752941z m-9.035294-5.270588c-0.752941-0.752941-1.505882-1.505882-1.505883-2.258824 0-0.752941 0-0.752941 0.752942-1.505882 0.752941-1.505882 2.258824-1.505882 3.764705-0.752941 0.752941 0.752941 1.505882 1.505882 1.505883 2.258823v1.505883c-0.752941 0.752941-1.505882 1.505882-2.258824 1.505882-1.505882 0-1.505882-0.752941-2.258823-0.752941z m-8.282353-5.270588c-0.752941-0.752941-0.752941-1.505882-0.752941-2.258824 0-0.752941 0-0.752941 0.752941-1.505882 0.752941-1.505882 2.258824-1.505882 3.764706-0.752941v2.258823c0 0.752941 0 0.752941-0.752941 1.505882s-1.505882 1.505882-2.258824 1.505883c0-0.752941 0-0.752941-0.752941-0.752941z m-8.282353-6.02353c-0.752941-0.752941-0.752941-1.505882-0.752941-2.258823 0-0.752941 0-0.752941 0.752941-1.505883s2.258824-1.505882 3.764706-0.752941c0.752941 0.752941 0.752941 1.505882 0.752941 2.258824 0 0.752941 0 0.752941-0.752941 1.505882s-1.505882 0.752941-2.258824 0.752941c-0.752941 0.752941-0.752941 0.752941-1.505882 0z m-8.282353-5.270588c-0.752941-0.752941-0.752941-1.505882-0.752941-2.258824 0-0.752941 0-0.752941 0.752941-1.505882s2.258824-1.505882 3.764706-0.752941c0.752941 0.752941 0.752941 1.505882 0.752941 2.258823 0 0.752941 0 0.752941-0.752941 1.505883s-1.505882 0.752941-2.258824 0.752941h-1.505882z m-7.529412-6.776471c-0.752941-0.752941-0.752941-1.505882-0.752941-1.505882 0-0.752941 0-1.505882 0.752941-1.505882 0.752941-0.752941 2.258824-1.505882 3.764706 0 0.752941 0.752941 0.752941 1.505882 0.752941 1.505882 0 0.752941 0 1.505882-0.752941 1.505882-0.752941 0.752941-1.505882 0.752941-2.258823 0.752942-0.752941 0-1.505882 0-1.505883-0.752942zM386.258824 484.894118c-1.505882 0-2.258824-1.505882-2.258824-2.258824 0-1.505882 1.505882-2.258824 2.258824-2.258823 1.505882 0 2.258824 0.752941 2.258823 2.258823 0 0.752941-0.752941 2.258824-2.258823 2.258824z m7.529411-2.258824c0-1.505882 0.752941-2.258824 2.258824-2.258823 1.505882 0 2.258824 0.752941 2.258823 2.258823 0 1.505882-0.752941 2.258824-2.258823 2.258824-0.752941 0-2.258824-1.505882-2.258824-2.258824z m-17.317647 2.258824c-1.505882 0-2.258824-1.505882-2.258823-2.258824 0-1.505882 1.505882-2.258824 2.258823-2.258823 1.505882 0 2.258824 1.505882 2.258824 2.258823 0 0.752941-0.752941 2.258824-2.258824 2.258824z m27.105883-2.258824c0-1.505882 0.752941-2.258824 2.258823-2.258823 1.505882 0 2.258824 0.752941 2.258824 2.258823 0 1.505882-0.752941 2.258824-2.258824 2.258824-0.752941 0-2.258824-1.505882-2.258823-2.258824z m-36.894118 2.258824c-1.505882 0-2.258824-1.505882-2.258824-2.258824 0-1.505882 1.505882-2.258824 2.258824-2.258823 1.505882 0 2.258824 1.505882 2.258823 2.258823 0 0.752941-0.752941 2.258824-2.258823 2.258824z m46.682353-3.011765c0-1.505882 0.752941-2.258824 2.258823-2.258824 1.505882 0 2.258824 0.752941 2.258824 2.258824 0 1.505882-0.752941 2.258824-2.258824 2.258823-0.752941 0-2.258824-0.752941-2.258823-2.258823z m-56.470588 2.258823c-1.505882 0-2.258824-0.752941-2.258824-2.258823 0-1.505882 1.505882-2.258824 2.258824-2.258824 1.505882 0 2.258824 1.505882 2.258823 2.258824 0 1.505882-1.505882 2.258824-2.258823 2.258823z m67.011764-2.258823c0-1.505882 0.752941-2.258824 2.258824-2.258824 1.505882 0 2.258824 0.752941 2.258823 2.258824 0 1.505882-0.752941 2.258824-2.258823 2.258823-1.505882 0-2.258824-0.752941-2.258824-2.258823z m-77.552941 2.258823c-1.505882 0-2.258824-1.505882-2.258823-2.258823 0-1.505882 1.505882-2.258824 2.258823-2.258824 1.505882 0 2.258824 0.752941 2.258824 2.258824 0.752941 0.752941-0.752941 2.258824-2.258824 2.258823z m87.341177-3.011764c0-1.505882 0.752941-2.258824 2.258823-2.258824 1.505882 0 2.258824 0.752941 2.258824 2.258824 0 1.505882-0.752941 2.258824-2.258824 2.258823-1.505882 0.752941-2.258824-0.752941-2.258823-2.258823z m-97.129412 2.258823c-1.505882 0-2.258824-1.505882-2.258824-2.258823 0-1.505882 1.505882-2.258824 2.258824-2.258824 1.505882 0 2.258824 1.505882 2.258823 2.258824 0 1.505882-0.752941 2.258824-2.258823 2.258823z m106.917647-2.258823c0-1.505882 0.752941-2.258824 2.258823-2.258824 1.505882 0 2.258824 0.752941 2.258824 2.258824 0 1.505882-0.752941 2.258824-2.258824 2.258823-0.752941 0-2.258824-0.752941-2.258823-2.258823z m-116.705882 2.258823c-1.505882 0-2.258824-1.505882-2.258824-2.258823 0-1.505882 1.505882-2.258824 2.258824-2.258824 1.505882 0 2.258824 1.505882 2.258823 2.258824 0 0.752941-0.752941 2.258824-2.258823 2.258823z m129.505882-0.752941c-1.505882 0-2.258824-0.752941-2.258824-2.258823 0-1.505882 0.752941-2.258824 2.258824-2.258824 1.505882 0 2.258824 0.752941 2.258823 2.258824 0 1.505882-1.505882 2.258824-2.258823 2.258823z m-141.552941-3.011765c0-1.505882 1.505882-2.258824 3.011764-2.258823s2.258824 1.505882 2.258824 2.258823c0 1.505882-1.505882 2.258824-3.011765 2.258824-1.505882 0.752941-2.258824-0.752941-2.258823-2.258824z m148.329412 0c0-1.505882 0.752941-2.258824 2.258823-2.258823 1.505882 0 2.258824 0.752941 2.258824 2.258823 0 1.505882-0.752941 2.258824-2.258824 2.258824-0.752941 0-2.258824-0.752941-2.258823-2.258824z m9.788235-0.752941c0-1.505882 0.752941-2.258824 2.258823-3.011764 1.505882 0 2.258824 0.752941 3.011765 2.258823 0 1.505882-0.752941 2.258824-2.258823 2.258824-1.505882 0.752941-2.258824 0-3.011765-1.505883z m10.541176-0.752941c0-1.505882 0.752941-2.258824 2.258824-3.011765 1.505882 0 2.258824 0.752941 3.011765 2.258824 0 1.505882-0.752941 2.258824-2.258824 2.258823-2.258824 0.752941-3.011765 0-3.011765-1.505882z m-97.129411 1.505882z m106.917647-2.258823s0-0.752941 0 0c0-1.505882 0.752941-2.258824 2.258823-3.011765 1.505882 0 2.258824 0.752941 3.011765 2.258824 0 1.505882-0.752941 2.258824-2.258824 2.258823-2.258824 0.752941-3.011765-0.752941-3.011764-1.505882z m9.788235-1.505882c0-1.505882 0.752941-2.258824 2.258823-3.011765 1.505882 0 2.258824 0.752941 3.011765 2.258823 0 1.505882-0.752941 2.258824-2.258823 2.258824-2.258824 0.752941-3.011765 0-3.011765-1.505882z m9.788235-1.505883c0-1.505882 0.752941-2.258824 2.258824-3.011765 1.505882 0 2.258824 0.752941 3.011764 2.258824 0 1.505882-0.752941 2.258824-2.258823 2.258824-2.258824 0.752941-3.011765 0-3.011765-1.505883z m9.788235-0.752941s0-0.752941 0 0c0-1.505882 0.752941-2.258824 2.258824-3.011765 1.505882 0 2.258824 0.752941 3.011765 2.258824v0.752941c0 1.505882-0.752941 2.258824-2.258824 2.258824-1.505882-0.752941-3.011765-1.505882-3.011765-2.258824z m9.788236-1.505882c0-0.752941 0-0.752941 0 0 0-1.505882 0.752941-3.011765 2.258823-3.011765 1.505882 0 2.258824 0.752941 3.011765 2.258823v0.752942c0 1.505882-0.752941 2.258824-2.258824 2.258823h-0.752941c-0.752941-0.752941-2.258824-1.505882-2.258823-2.258823z m9.788235-2.258824c0-1.505882 0.752941-3.011765 2.258824-3.011765 1.505882 0 2.258824 0.752941 3.011764 2.258824v0.752941c0 1.505882-0.752941 2.258824-2.258823 2.258824h-0.752941c-0.752941 0-2.258824-0.752941-2.258824-2.258824z m9.788235-1.505882c0-1.505882 0.752941-3.011765 2.258824-3.011765 1.505882 0 3.011765 0.752941 3.011765 2.258824v0.752941c0 1.505882-0.752941 2.258824-2.258824 2.258823h-0.752941c-0.752941 0-2.258824-0.752941-2.258824-2.258823z m9.788236-2.258824c0-1.505882 0.752941-3.011765 2.258823-3.011764 1.505882 0 2.258824 0.752941 3.011765 2.258823v0.752941c0 1.505882-0.752941 2.258824-2.258824 2.258824h-0.752941c-0.752941 0-2.258824-0.752941-2.258823-2.258824z m9.788235-2.258823c0-1.505882 0.752941-3.011765 1.505882-3.011765 1.505882 0 3.011765 0.752941 3.011765 1.505882v0.752942c0 1.505882-0.752941 2.258824-2.258824 2.258823h-0.752941c-0.752941 0.752941-1.505882 0-1.505882-1.505882z m9.788235-2.258824c-0.752941 0-0.752941 0 0 0 0-1.505882 0.752941-3.011765 1.505883-3.011765 1.505882 0 3.011765 0.752941 3.011764 1.505883v0.752941c0 0.752941-0.752941 2.258824-2.258823 2.258824h-0.752941c-0.752941 0.752941-1.505882 0-1.505883-1.505883z m9.035294-2.258823s0-0.752941 0 0c0-1.505882 0.752941-3.011765 1.505883-3.011765 1.505882 0 3.011765 0.752941 3.011764 1.505882v0.752941c0 0.752941-0.752941 2.258824-1.505882 2.258824h-0.752941c-0.752941 0-1.505882-0.752941-2.258824-1.505882z m9.788236-3.011765c0-1.505882 0.752941-3.011765 1.505882-3.011765 1.505882-0.752941 3.011765 0 3.011765 1.505883v0.752941c0 0.752941-0.752941 2.258824-1.505883 2.258823h-0.752941c-0.752941 0.752941-2.258824 0-2.258823-1.505882z m9.035294-3.011765c0-1.505882 0.752941-3.011765 1.505882-3.011764 1.505882-0.752941 3.011765 0 3.011765 1.505882v0.752941c0 0.752941-0.752941 2.258824-1.505883 2.258824h-0.752941c-0.752941 0-1.505882 0-2.258823-1.505883z m9.788235-3.011764v-0.752942c0-0.752941 0.752941-2.258824 1.505882-2.258823 1.505882-0.752941 3.011765 0 3.011765 1.505882v0.752941c0 0.752941-0.752941 2.258824-1.505882 2.258824H621.176471c-0.752941 0-2.258824-0.752941-2.258824-1.505882z m9.035294-3.764706v-0.752942c0-0.752941 0.752941-2.258824 1.505883-2.258823 1.505882-0.752941 3.011765 0 3.011764 1.505882v0.752941c0 0.752941-0.752941 1.505882-1.505882 2.258824h-0.752941c-0.752941 0-1.505882-0.752941-2.258824-1.505882z" fill="#FFFFFF" p-id="3634"></path><path d="M628.705882 551.905882c0-1.505882 0.752941-2.258824 2.258824-2.258823 1.505882 0 2.258824 0.752941 2.258823 2.258823 0 1.505882-1.505882 2.258824-2.258823 2.258824-0.752941 0-2.258824-1.505882-2.258824-2.258824z m-7.529411 2.258824c-1.505882 0-2.258824-0.752941-2.258824-2.258824 0-1.505882 1.505882-2.258824 2.258824-2.258823 1.505882 0 2.258824 1.505882 2.258823 2.258823 0.752941 0.752941-0.752941 2.258824-2.258823 2.258824z m20.329411 0c-1.505882 0-2.258824-0.752941-2.258823-2.258824 0-1.505882 0.752941-2.258824 2.258823-2.258823 1.505882 0 2.258824 0.752941 2.258824 2.258823 0 0.752941-0.752941 2.258824-2.258824 2.258824z m-30.117647-0.752941c-1.505882 0-2.258824-1.505882-2.258823-2.258824 0-1.505882 1.505882-2.258824 2.258823-2.258823 1.505882 0 2.258824 1.505882 2.258824 2.258823 0.752941 1.505882-0.752941 2.258824-2.258824 2.258824z m37.647059-2.258824c0-1.505882 0.752941-2.258824 2.258824-2.258823 1.505882 0 2.258824 0.752941 2.258823 2.258823 0 1.505882-0.752941 2.258824-2.258823 2.258824-1.505882 0-2.258824-0.752941-2.258824-2.258824z m-47.435294 1.505883c-1.505882 0-2.258824-1.505882-2.258824-2.258824 0-1.505882 1.505882-2.258824 3.011765-2.258824s2.258824 1.505882 2.258824 2.258824c-0.752941 1.505882-1.505882 2.258824-3.011765 2.258824z m-9.788235-0.752942c-1.505882 0-2.258824-1.505882-2.258824-2.258823 0-1.505882 1.505882-2.258824 3.011765-2.258824s2.258824 1.505882 2.258823 2.258824c-0.752941 1.505882-1.505882 2.258824-3.011764 2.258823z m-9.788236-1.505882c-1.505882 0-2.258824-1.505882-2.258823-2.258824v-0.752941c0-1.505882 1.505882-2.258824 3.011765-2.258823s2.258824 1.505882 2.258823 2.258823v0.752941c-0.752941 1.505882-1.505882 2.258824-3.011765 2.258824z m-10.541176-1.505882c-1.505882 0-2.258824-1.505882-2.258824-2.258824v-0.752941c0-1.505882 1.505882-2.258824 3.011765-2.258824s2.258824 1.505882 2.258824 2.258824v0.752941c0 1.505882-0.752941 2.258824-3.011765 2.258824 0.752941 0 0.752941 0 0 0z m-9.788235-1.505883c-1.505882 0-2.258824-1.505882-2.258824-2.258823v-0.752941c0-1.505882 1.505882-2.258824 3.011765-2.258824s2.258824 1.505882 2.258823 2.258824v0.752941c0 1.505882-0.752941 2.258824-3.011764 2.258823 0.752941 0 0.752941 0 0 0z m-9.788236-1.505882c-1.505882 0-2.258824-1.505882-2.258823-2.258824v-0.752941c0-1.505882 1.505882-2.258824 3.011765-2.258823s2.258824 1.505882 2.258823 2.258823v0.752941c0 1.505882-1.505882 2.258824-3.011765 2.258824 0.752941 0 0 0 0 0z m-9.788235-2.258824c-1.505882 0-2.258824-1.505882-2.258823-2.258823v-0.752941c0-1.505882 1.505882-2.258824 3.011764-1.505883 1.505882 0 2.258824 1.505882 2.258824 2.258824v0.752941c0 0.752941-0.752941 1.505882-3.011765 1.505882 0.752941 0 0.752941 0 0 0z m-9.788235-2.258823c-0.752941 0-2.258824-1.505882-2.258824-2.258824v-0.752941c0-1.505882 1.505882-2.258824 3.011765-1.505882 0.752941 0 2.258824 1.505882 2.258823 2.258823v0.752942c0 0.752941-0.752941 1.505882-3.011764 1.505882 0.752941 0 0.752941 0 0 0z m-9.035294-2.258824c-0.752941 0-1.505882-1.505882-1.505883-2.258823v-0.752941c0-1.505882 1.505882-2.258824 3.011765-1.505883 1.505882 0 2.258824 1.505882 2.258824 2.258824v0.752941c-1.505882 0.752941-2.258824 1.505882-3.764706 1.505882z m-9.788236-3.011764c-0.752941 0-1.505882-1.505882-1.505882-2.258824v-0.752941c0.752941-1.505882 1.505882-2.258824 3.011765-1.505882 0.752941 0 1.505882 1.505882 1.505882 2.258823v0.752941c-0.752941 1.505882-1.505882 2.258824-3.011765 1.505883 0 0.752941 0 0 0 0z m-9.788235-2.258824c-0.752941 0-1.505882-1.505882-1.505882-2.258823v-0.752942c0.752941-1.505882 1.505882-2.258824 3.011764-1.505882 0.752941 0 1.505882 1.505882 1.505883 2.258824v0.752941c0 0.752941-1.505882 1.505882-3.011765 1.505882 0.752941 0 0 0 0 0z m-9.788235-3.011765c-0.752941 0-1.505882-1.505882-1.505883-2.258823v-0.752941c0.752941-1.505882 1.505882-2.258824 3.011765-1.505883 0.752941 0 1.505882 1.505882 1.505882 2.258824v0.752941c0 0.752941-0.752941 1.505882-3.011764 1.505882 0.752941 0 0.752941 0 0 0z m-9.035294-3.011764c-0.752941 0-1.505882-1.505882-1.505883-2.258824v-0.752941c0.752941-1.505882 1.505882-2.258824 3.011765-1.505882 0.752941 0 1.505882 1.505882 1.505882 2.258823v0.752941c-0.752941 0.752941-1.505882 1.505882-3.011764 1.505883z m-9.788236-3.011765c-0.752941 0-1.505882-1.505882-1.505882-2.258824v-0.752941c0.752941-1.505882 2.258824-2.258824 3.011765-1.505882 0.752941 0 1.505882 1.505882 1.505882 2.258823v0.752942c-0.752941 0.752941-1.505882 1.505882-2.258823 1.505882h-0.752942z m-9.035294-3.764706c-0.752941 0-1.505882-1.505882-1.505882-2.258823v-0.752942c0.752941-1.505882 2.258824-2.258824 3.011765-1.505882 0.752941 0.752941 1.505882 1.505882 1.505882 2.258824v0.752941c-0.752941 0.752941-1.505882 1.505882-2.258824 1.505882h-0.752941z m-9.788235-3.011765c-0.752941-0.752941-1.505882-1.505882-1.505882-2.258823v-0.752941c0.752941-1.505882 2.258824-2.258824 3.011764-1.505883 0.752941 0 1.505882 1.505882 1.505883 2.258824v0.752941c-0.752941 0.752941-1.505882 1.505882-2.258824 1.505882h-0.752941z m-9.035294-3.764705c-0.752941 0-1.505882-1.505882-1.505883-2.258824v-0.752941c0.752941-1.505882 2.258824-2.258824 3.011765-1.505883 0.752941 0.752941 1.505882 1.505882 1.505883 2.258824v0.752941c-0.752941 0.752941-1.505882 1.505882-2.258824 1.505883h-0.752941z m-9.035294-3.764706c-0.752941-0.752941-1.505882-1.505882-1.505883-2.258824v-0.752941c0.752941-1.505882 2.258824-2.258824 3.011765-1.505882 0.752941 0.752941 1.505882 1.505882 1.505882 2.258823v0.752941c-0.752941 0.752941-1.505882 1.505882-2.258823 1.505883h-0.752941z m-9.788236-3.764706c-0.752941-0.752941-1.505882-1.505882-1.505882-2.258824v-0.752941c0.752941-1.505882 2.258824-1.505882 3.011765-1.505882 0.752941 0.752941 1.505882 1.505882 1.505882 2.258823v0.752941c-0.752941 0.752941-1.505882 1.505882-2.258823 1.505883h-0.752942z m-9.035294-3.764706c-0.752941-0.752941-1.505882-1.505882-1.505882-2.258824v-0.752941c0.752941-1.505882 2.258824-1.505882 3.011765-1.505882 0.752941 0.752941 1.505882 1.505882 1.505882 2.258823v0.752942c-0.752941 0.752941-1.505882 1.505882-2.258824 1.505882h-0.752941z m-9.035294-4.517647c-0.752941-0.752941-1.505882-1.505882-1.505882-2.258824v-0.752941c0.752941-1.505882 2.258824-1.505882 3.011765-1.505882 0.752941 0.752941 1.505882 1.505882 1.505882 2.258823v0.752941c-0.752941 0.752941-1.505882 1.505882-2.258824 1.505883 0 0.752941 0 0-0.752941 0z m-9.035294-3.764706c-0.752941-0.752941-1.505882-1.505882-1.505882-2.258824v-0.752941c0.752941-1.505882 2.258824-1.505882 3.011764-1.505882 0.752941 0.752941 1.505882 1.505882 1.505883 2.258823v0.752942c-0.752941 0.752941-1.505882 1.505882-2.258824 1.505882h-0.752941z m-9.035294-4.517647c-0.752941-0.752941-1.505882-1.505882-1.505882-2.258824v-0.752941c0.752941-1.505882 2.258824-1.505882 3.011764-1.505882 0.752941 0.752941 1.505882 1.505882 1.505883 2.258823v0.752942c-0.752941 0.752941-1.505882 1.505882-2.258824 1.505882h-0.752941z m-9.035294-4.517647c-0.752941-0.752941-1.505882-1.505882-1.505883-2.258824v-0.752941c0.752941-1.505882 2.258824-1.505882 3.011765-0.752941 0.752941 0.752941 1.505882 1.505882 1.505883 2.258823v0.752942c-0.752941 0.752941-1.505882 1.505882-2.258824 1.505882l-0.752941-0.752941z m-9.035294-4.517647c-0.752941-0.752941-1.505882-1.505882-1.505883-2.258824v-0.752941c0.752941-1.505882 2.258824-1.505882 3.011765-0.752941 0.752941 0.752941 1.505882 1.505882 1.505882 2.258823v0.752942c-0.752941 0.752941-1.505882 1.505882-2.258823 1.505882l-0.752941-0.752941z m-8.282353-4.517647c-0.752941-0.752941-1.505882-1.505882-1.505883-2.258824v-1.505882c0.752941-1.505882 2.258824-1.505882 3.011765-0.752941 0.752941 0.752941 1.505882 1.505882 1.505882 2.258823v1.505883c-0.752941 0.752941-1.505882 1.505882-2.258823 1.505882l-0.752941-0.752941z m-9.035294-4.517647c-0.752941-0.752941-1.505882-1.505882-1.505883-2.258824v-1.505882c0.752941-1.505882 2.258824-1.505882 3.011765-0.752941 0.752941 0.752941 1.505882 1.505882 1.505882 2.258823v1.505882c-0.752941 0.752941-1.505882 1.505882-2.258823 1.505883 0-0.752941 0-0.752941-0.752941-0.752941z m-9.035294-5.270589c-0.752941-0.752941-1.505882-1.505882-1.505883-2.258823v-1.505882c0.752941-1.505882 2.258824-1.505882 3.011765-0.752942 0.752941 0.752941 1.505882 1.505882 1.505882 2.258824v1.505882c-0.752941 0.752941-1.505882 1.505882-2.258823 1.505883l-0.752941-0.752942z m-8.282353-4.517647c-0.752941-0.752941-1.505882-1.505882-1.505883-2.258823v-1.505883c0.752941-1.505882 2.258824-1.505882 3.011765-0.752941 0.752941 0.752941 1.505882 1.505882 1.505882 2.258824v1.505882c-0.752941 0.752941-1.505882 1.505882-2.258823 1.505883 0-0.752941-0.752941-0.752941-0.752941-0.752942zM318.494118 615.905882c0-1.505882 0.752941-2.258824 2.258823-2.258823 1.505882 0 2.258824 0.752941 2.258824 2.258823 0 1.505882-1.505882 2.258824-2.258824 2.258824-1.505882 0-2.258824-0.752941-2.258823-2.258824z m9.788235 0c0-1.505882 0.752941-2.258824 2.258823-2.258823 1.505882 0 2.258824 0.752941 2.258824 2.258823 0 1.505882-1.505882 2.258824-2.258824 2.258824-1.505882 0-2.258824-0.752941-2.258823-2.258824z m-17.317647 2.258824c-1.505882 0-2.258824-1.505882-2.258824-2.258824 0-1.505882 1.505882-2.258824 2.258824-2.258823 1.505882 0 2.258824 1.505882 2.258823 2.258823 0 1.505882-0.752941 2.258824-2.258823 2.258824z m27.105882-2.258824c0-1.505882 0.752941-2.258824 2.258824-2.258823 1.505882 0 2.258824 0.752941 2.258823 2.258823 0 1.505882-0.752941 2.258824-2.258823 2.258824-0.752941 0-2.258824-0.752941-2.258824-2.258824z m-36.894117 2.258824c-1.505882 0-2.258824-1.505882-2.258824-2.258824 0-1.505882 1.505882-2.258824 2.258824-2.258823 1.505882 0 2.258824 1.505882 2.258823 2.258823 0 0.752941-1.505882 2.258824-2.258823 2.258824z m46.682353-2.258824c0-1.505882 0.752941-2.258824 2.258823-2.258823 1.505882 0 2.258824 0.752941 2.258824 2.258823 0 1.505882-0.752941 2.258824-2.258824 2.258824-0.752941 0-2.258824-1.505882-2.258823-2.258824z m-57.22353 2.258824c-1.505882 0-2.258824-0.752941-2.258823-2.258824 0-1.505882 1.505882-2.258824 2.258823-2.258823 1.505882 0 2.258824 1.505882 2.258824 2.258823 0.752941 0.752941-0.752941 2.258824-2.258824 2.258824z m67.011765-3.011765c0-1.505882 0.752941-2.258824 2.258823-2.258823 1.505882 0 2.258824 0.752941 2.258824 2.258823 0 1.505882-0.752941 2.258824-2.258824 2.258824-0.752941 0.752941-2.258824-0.752941-2.258823-2.258824z m-76.8 2.258824c-1.505882 0-2.258824-1.505882-2.258824-2.258824 0-1.505882 1.505882-2.258824 2.258824-2.258823 1.505882 0 2.258824 1.505882 2.258823 2.258823 0 1.505882-0.752941 2.258824-2.258823 2.258824z m87.341176-2.258824c0-1.505882 0.752941-2.258824 2.258824-2.258823 1.505882 0 2.258824 0.752941 2.258823 2.258823 0 1.505882-0.752941 2.258824-2.258823 2.258824-1.505882 0-2.258824-0.752941-2.258824-2.258824z m9.788236 0c0-1.505882 0.752941-2.258824 2.258823-2.258823 1.505882 0 2.258824 0.752941 2.258824 2.258823 0 1.505882-0.752941 2.258824-2.258824 2.258824-1.505882 0-2.258824-0.752941-2.258823-2.258824z m-106.917647 2.258824c-1.505882 0-2.258824-1.505882-2.258824-2.258824 0-1.505882 1.505882-2.258824 2.258824-2.258823 1.505882 0 2.258824 1.505882 2.258823 2.258823 0 1.505882-0.752941 2.258824-2.258823 2.258824z m116.705882-3.011765c0-1.505882 0.752941-2.258824 2.258823-2.258824 1.505882 0 2.258824 0.752941 2.258824 2.258824 0 1.505882-0.752941 2.258824-2.258824 2.258824-0.752941 0-2.258824-0.752941-2.258823-2.258824z m9.788235 0c0-1.505882 0.752941-2.258824 2.258824-2.258824 1.505882 0 2.258824 0.752941 2.258823 2.258824 0 1.505882-0.752941 2.258824-2.258823 2.258824-0.752941 0-2.258824-1.505882-2.258824-2.258824z m9.788235-0.752941c0-1.505882 0.752941-2.258824 2.258824-2.258824 1.505882 0 2.258824 0.752941 2.258824 2.258824 0 1.505882-0.752941 2.258824-2.258824 2.258823-0.752941 0-2.258824-0.752941-2.258824-2.258823z m9.788236-0.752941c0-1.505882 0.752941-2.258824 2.258823-2.258824 1.505882 0 2.258824 0.752941 2.258824 2.258824 0 1.505882-0.752941 2.258824-2.258824 2.258823-0.752941 0-1.505882-0.752941-2.258823-2.258823z m10.541176-0.752942c0-1.505882 0.752941-2.258824 2.258824-2.258823 1.505882 0 2.258824 0.752941 3.011764 2.258823 0 1.505882-0.752941 2.258824-2.258823 2.258824-2.258824 0.752941-3.011765-0.752941-3.011765-2.258824z m9.788236 0s0-0.752941 0 0c0-1.505882 0.752941-2.258824 2.258823-2.258823 1.505882 0 2.258824 0.752941 2.258824 2.258823 0 1.505882-0.752941 2.258824-2.258824 2.258824-1.505882 0-2.258824-1.505882-2.258823-2.258824z m9.788235-0.752941s0-0.752941 0 0c0-1.505882 0.752941-2.258824 2.258823-3.011764 1.505882 0 2.258824 0.752941 3.011765 2.258823 0 1.505882-0.752941 2.258824-2.258823 2.258824-1.505882 0.752941-3.011765-0.752941-3.011765-1.505883z m9.788235-0.752941c0-0.752941 0-0.752941 0 0 0-1.505882 0.752941-2.258824 2.258824-3.011765 1.505882 0 2.258824 0.752941 3.011764 2.258824 0 1.505882-0.752941 2.258824-2.258823 2.258823-1.505882 0-3.011765-0.752941-3.011765-1.505882z m9.788235-1.505882c0-1.505882 0.752941-2.258824 2.258824-3.011765 1.505882 0 2.258824 0.752941 3.011765 2.258824 0 1.505882-0.752941 2.258824-2.258824 2.258823-1.505882 0.752941-3.011765 0-3.011765-1.505882z m9.788236-0.752941c0-1.505882 0.752941-2.258824 2.258823-3.011765 1.505882 0 2.258824 0.752941 3.011765 2.258823 0 1.505882-0.752941 2.258824-2.258824 2.258824-1.505882 0.752941-2.258824 0-3.011764-1.505882z m9.788235-0.752942s0-0.752941 0 0c0-1.505882 0.752941-2.258824 2.258824-3.011764 1.505882 0 2.258824 0.752941 3.011764 2.258823 0 1.505882-0.752941 2.258824-2.258823 2.258824-1.505882 0.752941-2.258824-0.752941-3.011765-1.505883z m10.541176-1.505882c0-1.505882 0.752941-2.258824 2.258824-3.011765 1.505882 0 2.258824 0.752941 3.011765 2.258824 0 1.505882-0.752941 2.258824-2.258824 2.258823-2.258824 0.752941-3.011765 0-3.011765-1.505882z m9.788236-1.505882c0-1.505882 0.752941-2.258824 2.258823-3.011765 1.505882 0 2.258824 0.752941 3.011765 2.258824v0.752941c0 1.505882-0.752941 2.258824-2.258824 2.258823-2.258824 0-3.011765-0.752941-3.011764-2.258823z m9.788235-0.752941s0-0.752941 0 0c0-1.505882 0.752941-2.258824 2.258824-3.011765 1.505882 0 2.258824 0.752941 3.011764 2.258823 0 1.505882-0.752941 2.258824-2.258823 2.258824-2.258824 0.752941-3.011765-0.752941-3.011765-1.505882z m9.788235-1.505883s0-0.752941 0 0c0-1.505882 0.752941-2.258824 2.258824-3.011765 1.505882 0 2.258824 0.752941 3.011765 2.258824v0.752941c0 1.505882-0.752941 2.258824-2.258824 2.258824h-0.752941c-1.505882 0-2.258824-1.505882-2.258824-2.258824z m9.788236-1.505882s0-0.752941 0 0c0-1.505882 0.752941-3.011765 2.258823-3.011765 1.505882 0 2.258824 0.752941 3.011765 2.258824 0 1.505882-0.752941 2.258824-2.258824 2.258823H538.352941c-1.505882 0.752941-2.258824-0.752941-2.258823-1.505882z m9.788235-1.505883s0-0.752941 0 0c0-1.505882 0.752941-3.011765 2.258823-3.011764 1.505882 0 2.258824 0.752941 3.011765 2.258823v0.752941c0 1.505882-0.752941 2.258824-2.258823 2.258824h-0.752942c-0.752941-0.752941-2.258824-1.505882-2.258823-2.258824z m9.788235-2.258823c0-1.505882 0.752941-3.011765 2.258824-3.011765 1.505882 0 2.258824 0.752941 3.011764 2.258824v0.752941c0 1.505882-0.752941 2.258824-2.258823 2.258823h-0.752941c-1.505882 0-2.258824-0.752941-2.258824-2.258823z m9.788236-1.505882s0-0.752941 0 0c0-1.505882 0.752941-3.011765 2.258823-3.011765 1.505882 0 2.258824 0.752941 3.011765 2.258823v0.752942c0 1.505882-0.752941 2.258824-2.258824 2.258823h-0.752941c-1.505882 0-2.258824-1.505882-2.258823-2.258823z m9.788235-2.258824c0-1.505882 0.752941-3.011765 2.258823-3.011765 1.505882 0 3.011765 0.752941 3.011765 2.258824v0.752941c0 1.505882-0.752941 2.258824-2.258823 2.258824h-0.752942c-1.505882 0-2.258824-0.752941-2.258823-2.258824z m9.788235-2.258823c0-1.505882 0.752941-3.011765 2.258824-3.011765 1.505882 0 3.011765 0.752941 3.011764 2.258823v0.752942c0 1.505882-0.752941 2.258824-2.258823 2.258823h-0.752941c-1.505882 0-2.258824-0.752941-2.258824-2.258823z m9.035294-1.505883c0-0.752941 0-0.752941 0 0 0-1.505882 0.752941-3.011765 1.505883-3.011765 1.505882 0 3.011765 0.752941 3.011764 1.505883v0.752941c0 1.505882-0.752941 2.258824-2.258823 2.258824h-0.752941l-1.505883-1.505883z m9.788236-3.011765c0-1.505882 0.752941-3.011765 1.505882-3.011764 1.505882 0 3.011765 0.752941 3.011765 1.505882v0.752941c0 0.752941-0.752941 2.258824-1.505883 2.258824H606.117647c-0.752941 0.752941-1.505882 0-2.258823-1.505883z m9.788235-2.258823s0-0.752941 0 0c0-1.505882 0.752941-3.011765 1.505882-3.011765 1.505882 0 3.011765 0.752941 3.011765 1.505883v0.752941c0 1.505882-0.752941 2.258824-1.505882 2.258823h-0.752942c-0.752941 0-2.258824 0-2.258823-1.505882z m9.788235-3.011765c0-1.505882 0.752941-3.011765 1.505882-3.011764 1.505882-0.752941 3.011765 0.752941 3.011765 1.505882v0.752941c0 0.752941-0.752941 2.258824-1.505882 2.258824h-0.752941c-1.505882 0.752941-2.258824 0-2.258824-1.505883z m9.035294-2.258823c0-0.752941 0-0.752941 0 0 0-1.505882 0.752941-3.011765 1.505883-3.011765 1.505882-0.752941 3.011765 0 3.011764 1.505882v0.752942c0 0.752941-0.752941 2.258824-1.505882 2.258823h-0.752941c-0.752941 0-1.505882-0.752941-2.258824-1.505882z m9.788236-3.011765v-0.752941c0-0.752941 0.752941-2.258824 1.505882-2.258824 1.505882-0.752941 3.011765 0 3.011765 1.505883v0.752941c0 0.752941-0.752941 2.258824-1.505883 2.258823h-0.752941c-0.752941 0-2.258824-0.752941-2.258823-1.505882zM651.294118 572.235294v-0.752941c0-0.752941 0.752941-2.258824 1.505882-2.258824 1.505882-0.752941 3.011765 0 3.011765 1.505883v0.752941c0 0.752941-0.752941 2.258824-1.505883 2.258823h-0.752941c-0.752941 0-1.505882 0-2.258823-1.505882z m9.788235-3.011765v-0.752941c0-0.752941 0.752941-2.258824 1.505882-2.258823 1.505882-0.752941 3.011765 0 3.011765 1.505882v0.752941c0 0.752941-0.752941 2.258824-1.505882 2.258824h-0.752942c-1.505882 0-2.258824-0.752941-2.258823-1.505883z" fill="#FFFFFF" p-id="3635"></path><path d="M694.964706 642.258824c0-1.505882 1.505882-2.258824 2.258823-2.258824 1.505882 0 2.258824 1.505882 2.258824 2.258824 0 1.505882-1.505882 2.258824-2.258824 2.258823-1.505882 0-2.258824-0.752941-2.258823-2.258823z m9.788235 0c0-1.505882 0.752941-2.258824 2.258824-2.258824 1.505882 0 2.258824 0.752941 2.258823 2.258824 0 1.505882-0.752941 2.258824-2.258823 2.258823-1.505882 0-2.258824-0.752941-2.258824-2.258823z m-17.317647 2.258823c-1.505882 0-2.258824-1.505882-2.258823-2.258823 0-1.505882 1.505882-2.258824 2.258823-2.258824 1.505882 0 2.258824 1.505882 2.258824 2.258824 0 0.752941-1.505882 2.258824-2.258824 2.258823z m27.105882-3.011765c0-1.505882 0.752941-2.258824 2.258824-2.258823 1.505882 0 2.258824 0.752941 2.258824 2.258823 0 1.505882-0.752941 2.258824-2.258824 2.258824-0.752941 0-2.258824-0.752941-2.258824-2.258824z m-37.647058 2.258824c-1.505882 0-2.258824-1.505882-2.258824-2.258824 0-1.505882 1.505882-2.258824 2.258824-2.258823 1.505882 0 2.258824 1.505882 2.258823 2.258823 0.752941 1.505882-0.752941 2.258824-2.258823 2.258824z m-9.788236-0.752941c-1.505882 0-2.258824-1.505882-2.258823-2.258824 0-1.505882 1.505882-2.258824 3.011765-2.258823s2.258824 1.505882 2.258823 2.258823c-0.752941 1.505882-1.505882 2.258824-3.011765 2.258824z m-9.788235-0.752941c-1.505882 0-2.258824-1.505882-2.258823-2.258824 0-1.505882 1.505882-2.258824 3.011764-2.258824s2.258824 1.505882 2.258824 2.258824c-0.752941 1.505882-1.505882 2.258824-3.011765 2.258824z m-9.788235-0.752942c-1.505882 0-2.258824-1.505882-2.258824-2.258823 0-1.505882 1.505882-2.258824 3.011765-2.258824s2.258824 1.505882 2.258823 2.258824c-0.752941 1.505882-1.505882 2.258824-3.011764 2.258823z m-9.788236-1.505882c-1.505882 0-2.258824-1.505882-2.258823-2.258824 0-1.505882 1.505882-2.258824 3.011765-2.258823s2.258824 1.505882 2.258823 2.258823c-0.752941 1.505882-1.505882 2.258824-3.011765 2.258824z m-10.541176-0.752941c-1.505882 0-2.258824-1.505882-2.258824-2.258824 0-1.505882 1.505882-2.258824 3.011765-2.258823s2.258824 1.505882 2.258824 2.258823c0 1.505882-1.505882 2.258824-3.011765 2.258824 0.752941 0 0.752941 0 0 0z m-9.788235-1.505883c-1.505882 0-2.258824-1.505882-2.258824-2.258823 0-1.505882 1.505882-2.258824 3.011765-2.258824s2.258824 1.505882 2.258823 2.258824c0 1.505882-1.505882 2.258824-3.011764 2.258823 0.752941 0 0 0 0 0z m-9.788236-1.505882c-1.505882 0-2.258824-1.505882-2.258823-2.258823 0-1.505882 1.505882-2.258824 3.011765-2.258824s2.258824 1.505882 2.258823 2.258824v0.752941c0 0.752941-1.505882 1.505882-3.011765 1.505882 0.752941 0 0 0 0 0z m-9.788235-1.505882c-1.505882 0-2.258824-1.505882-2.258823-2.258824 0-1.505882 1.505882-2.258824 3.011764-2.258823s2.258824 1.505882 2.258824 2.258823v0.752941c0 0.752941-1.505882 1.505882-3.011765 1.505883z m-9.788235-1.505883c-1.505882 0-2.258824-1.505882-2.258824-2.258823 0-1.505882 1.505882-2.258824 3.011765-2.258824s2.258824 1.505882 2.258824 2.258824v0.752941c0 0.752941-1.505882 1.505882-3.011765 1.505882z m-9.788235-1.505882c-1.505882 0-2.258824-1.505882-2.258824-2.258823 0-1.505882 1.505882-2.258824 3.011765-2.258824s2.258824 1.505882 2.258823 2.258824c0 1.505882-1.505882 2.258824-3.011764 2.258823z m-9.788236-1.505882c-1.505882 0-2.258824-1.505882-2.258823-2.258824v-0.752941c0-1.505882 1.505882-2.258824 3.011764-2.258824s2.258824 1.505882 2.258824 2.258824v0.752941c0 1.505882-1.505882 2.258824-3.011765 2.258824z m-9.788235-2.258824c-1.505882 0-2.258824-1.505882-2.258824-2.258823V624.941176c0-1.505882 1.505882-2.258824 3.011765-2.258823s2.258824 1.505882 2.258824 2.258823v0.752942c0 1.505882-1.505882 2.258824-3.011765 2.258823z m-9.788235-1.505882c-1.505882 0-2.258824-1.505882-2.258824-2.258824v-0.752941c0-1.505882 1.505882-2.258824 3.011765-2.258823s2.258824 1.505882 2.258823 2.258823v0.752941c0 1.505882-1.505882 2.258824-3.011764 2.258824z m-9.788236-1.505883c-1.505882 0-2.258824-1.505882-2.258823-2.258823v-0.752941c0-1.505882 1.505882-2.258824 3.011765-2.258824s2.258824 1.505882 2.258823 2.258824v0.752941c0 0.752941-1.505882 2.258824-3.011765 2.258823z m-9.788235-2.258823c-1.505882 0-2.258824-1.505882-2.258823-2.258824v-0.752941c0-1.505882 1.505882-2.258824 3.011764-2.258823s2.258824 1.505882 2.258824 2.258823v0.752941c0 1.505882-1.505882 2.258824-3.011765 2.258824z m-9.788235-2.258824c-1.505882 0-2.258824-1.505882-2.258824-2.258823V617.411765c0-1.505882 1.505882-2.258824 3.011765-2.258824s2.258824 1.505882 2.258823 2.258824v0.752941c0 1.505882-1.505882 3.011765-3.011764 2.258823 0.752941 0.752941 0 0 0 0z m-9.788236-1.505882c-1.505882 0-2.258824-1.505882-2.258823-2.258823v-0.752942c0-1.505882 1.505882-2.258824 3.011765-2.258823s2.258824 1.505882 2.258823 2.258823v0.752942c0 1.505882-1.505882 2.258824-3.011765 2.258823 0.752941 0 0 0 0 0z m-9.788235-2.258823c-1.505882 0-2.258824-1.505882-2.258823-2.258824v-0.752941c0-1.505882 1.505882-2.258824 3.011764-2.258824s2.258824 1.505882 2.258824 2.258824v0.752941c0 1.505882-1.505882 2.258824-3.011765 2.258824 0.752941 0 0 0 0 0z m-9.788235-2.258824c-1.505882 0-2.258824-1.505882-2.258824-2.258824v-0.752941c0-1.505882 1.505882-2.258824 3.011765-2.258823s2.258824 1.505882 2.258824 2.258823v0.752941c0 1.505882-0.752941 2.258824-3.011765 2.258824 0.752941 0 0.752941 0 0 0z m-9.788235-1.505882c-1.505882 0-2.258824-1.505882-2.258824-2.258824V609.882353c0-1.505882 1.505882-2.258824 3.011765-2.258824s2.258824 1.505882 2.258823 2.258824v0.752941c0 1.505882-0.752941 2.258824-3.011764 2.258824 0.752941 0 0.752941 0 0 0z m-9.788236-2.258824c-1.505882 0-2.258824-1.505882-2.258823-2.258823v-0.752942c0-1.505882 1.505882-2.258824 3.011764-1.505882 1.505882 0 2.258824 1.505882 2.258824 2.258824v0.752941c0 0.752941-0.752941 1.505882-3.011765 1.505882 0.752941 0 0.752941 0 0 0z m-9.035294-2.258823c-1.505882 0-2.258824-1.505882-2.258823-2.258824v-0.752941c0-1.505882 1.505882-2.258824 3.011764-2.258824s2.258824 1.505882 2.258824 2.258824v0.752941c-0.752941 1.505882-1.505882 2.258824-3.011765 2.258824z m-9.788235-2.258824c-1.505882 0-2.258824-1.505882-2.258824-2.258823v-0.752942c0-1.505882 1.505882-2.258824 3.011765-2.258823s2.258824 1.505882 2.258824 2.258823v0.752942c-0.752941 1.505882-1.505882 2.258824-3.011765 2.258823z m-9.788235-2.258823c-1.505882 0-2.258824-1.505882-2.258824-2.258824v-0.752941c0-1.505882 1.505882-2.258824 3.011765-1.505883 1.505882 0 2.258824 1.505882 2.258823 2.258824v0.752941c-0.752941 0.752941-1.505882 1.505882-3.011764 1.505883z m-9.788236-2.258824c-1.505882 0-2.258824-1.505882-2.258823-2.258824v-0.752941c0-1.505882 1.505882-2.258824 3.011764-2.258823 0.752941 0 2.258824 1.505882 2.258824 2.258823v0.752941c0 1.505882-1.505882 2.258824-3.011765 2.258824z m-9.788235-2.258824c-1.505882 0-2.258824-1.505882-2.258824-2.258823v-0.752941c0-1.505882 1.505882-2.258824 3.011765-1.505883 0.752941 0 2.258824 1.505882 2.258824 2.258824v0.752941c0 0.752941-1.505882 1.505882-3.011765 1.505882 0.752941 0 0 0 0 0z m-9.788235-2.258823c-1.505882 0-2.258824-1.505882-2.258824-2.258824v-0.752941c0-1.505882 1.505882-2.258824 3.011765-1.505882 1.505882 0 2.258824 1.505882 2.258823 2.258823v0.752942c0 0.752941-0.752941 1.505882-3.011764 1.505882 0.752941 0 0 0 0 0zM402.823529 594.823529c-1.505882 0-2.258824-1.505882-2.258823-2.258823v-0.752941c0-1.505882 1.505882-2.258824 3.011765-1.505883 0.752941 0 2.258824 1.505882 2.258823 2.258824v0.752941c0 0.752941-0.752941 1.505882-3.011765 1.505882 0.752941 0 0.752941 0 0 0z m-9.035294-2.258823c-0.752941 0-2.258824-1.505882-2.258823-2.258824v-0.752941c0-1.505882 1.505882-2.258824 3.011764-1.505882 1.505882 0 2.258824 1.505882 2.258824 2.258823v0.752942c-0.752941 0.752941-1.505882 1.505882-3.011765 1.505882z m-9.788235-3.011765c-1.505882 0-2.258824-1.505882-2.258824-2.258823v-0.752942c0-1.505882 1.505882-2.258824 3.011765-1.505882 0.752941 0 2.258824 1.505882 2.258824 2.258824v0.752941c-0.752941 1.505882-1.505882 2.258824-3.011765 1.505882 0 0.752941 0 0.752941 0 0z m-9.788235-2.258823c-0.752941 0-2.258824-1.505882-2.258824-2.258824v-0.752941c0-1.505882 1.505882-2.258824 3.011765-1.505882 0.752941 0 1.505882 1.505882 1.505882 2.258823v0.752941c0.752941 0.752941-0.752941 1.505882-2.258823 1.505883z m-9.788236-2.258824c-1.505882 0-2.258824-1.505882-2.258823-2.258823v-0.752942c0-1.505882 1.505882-2.258824 3.011765-1.505882 0.752941 0 1.505882 1.505882 1.505882 2.258824v0.752941c0.752941 0.752941-0.752941 1.505882-2.258824 1.505882 0.752941 0 0 0 0 0z m-9.788235-2.258823c-0.752941 0-1.505882-1.505882-1.505882-2.258824V579.764706c0-1.505882 1.505882-2.258824 3.011764-1.505882 1.505882 0 2.258824 1.505882 2.258824 2.258823v0.752941c-0.752941 0.752941-1.505882 1.505882-3.764706 1.505883 0.752941 0 0.752941 0 0 0z m-9.035294-3.011765c-1.505882 0-1.505882-1.505882-1.505882-2.258824v-0.752941c0-1.505882 1.505882-2.258824 3.011764-1.505882 1.505882 0 2.258824 1.505882 2.258824 2.258823v0.752942c-1.505882 0.752941-2.258824 1.505882-3.764706 1.505882z m-9.788235-2.258824c-1.505882 0-1.505882-1.505882-1.505883-2.258823v-0.752941c0-1.505882 1.505882-2.258824 3.011765-1.505883 0.752941 0 1.505882 1.505882 1.505882 2.258824v0.752941c-0.752941 0.752941-1.505882 1.505882-3.011764 1.505882z m-9.788236-2.258823c-1.505882 0-2.258824-1.505882-2.258823-2.258824V572.235294c0-1.505882 1.505882-2.258824 3.011765-1.505882 1.505882 0 2.258824 1.505882 1.505882 2.258823v0.752941c0.752941 0.752941-0.752941 1.505882-2.258824 1.505883z m-9.788235-3.011765c-0.752941 0-1.505882-1.505882-1.505882-2.258823v-0.752942c0-1.505882 1.505882-2.258824 3.011764-1.505882 1.505882 0 1.505882 1.505882 1.505883 2.258824v0.752941c0 0.752941-1.505882 1.505882-3.011765 1.505882 0.752941 0 0 0 0 0zM390.023529 685.929412c0-1.505882 1.505882-2.258824 2.258824-2.258824 1.505882 0 2.258824 1.505882 2.258823 2.258824 0 1.505882-0.752941 2.258824-2.258823 2.258823-0.752941 0-2.258824-0.752941-2.258824-2.258823z m10.541177 0c0-1.505882 0.752941-2.258824 2.258823-2.258824 1.505882 0 2.258824 0.752941 2.258824 2.258824 0 1.505882-0.752941 2.258824-2.258824 2.258823-1.505882 0-2.258824-0.752941-2.258823-2.258823z m-20.329412 0c0-1.505882 1.505882-2.258824 2.258824-2.258824 1.505882 0 2.258824 0.752941 2.258823 2.258824 0 1.505882-0.752941 2.258824-2.258823 2.258823-0.752941 0-2.258824-0.752941-2.258824-2.258823z m30.117647 0c0-1.505882 0.752941-2.258824 2.258824-2.258824 1.505882 0 2.258824 0.752941 2.258823 2.258824 0 1.505882-1.505882 2.258824-2.258823 2.258823-1.505882 0-2.258824-0.752941-2.258824-2.258823z m-39.905882 0c0-1.505882 1.505882-2.258824 2.258823-2.258824 1.505882 0 2.258824 1.505882 2.258824 2.258824 0 1.505882-1.505882 2.258824-2.258824 2.258823-1.505882 0-2.258824-0.752941-2.258823-2.258823z m49.694117 0c0-1.505882 0.752941-2.258824 2.258824-2.258824 1.505882 0 2.258824 0.752941 2.258824 2.258824 0 1.505882-0.752941 2.258824-2.258824 2.258823-1.505882 0-2.258824-0.752941-2.258824-2.258823z m-57.223529 2.258823c-1.505882 0-2.258824-1.505882-2.258823-2.258823 0-1.505882 1.505882-2.258824 2.258823-2.258824 1.505882 0 2.258824 0.752941 2.258824 2.258824 0 1.505882-0.752941 2.258824-2.258824 2.258823z m-9.788235 0c-1.505882 0-2.258824-1.505882-2.258824-2.258823 0-1.505882 1.505882-2.258824 2.258824-2.258824 1.505882 0 2.258824 1.505882 2.258823 2.258824 0 1.505882-0.752941 2.258824-2.258823 2.258823z m76.8-2.258823c0-1.505882 0.752941-2.258824 2.258823-2.258824 1.505882 0 2.258824 0.752941 2.258824 2.258824 0 1.505882-0.752941 2.258824-2.258824 2.258823-0.752941 0-2.258824-0.752941-2.258823-2.258823z m-86.588236 2.258823c-1.505882 0-2.258824-1.505882-2.258823-2.258823 0-1.505882 1.505882-2.258824 2.258823-2.258824 1.505882 0 2.258824 1.505882 2.258824 2.258824 0 1.505882-1.505882 2.258824-2.258824 2.258823z m96.376471-2.258823c0-1.505882 0.752941-2.258824 2.258824-2.258824 1.505882 0 2.258824 0.752941 2.258823 2.258824 0 1.505882-0.752941 2.258824-2.258823 2.258823-0.752941 0-2.258824-0.752941-2.258824-2.258823z m-106.917647 2.258823c-1.505882 0-2.258824-1.505882-2.258824-2.258823 0-1.505882 1.505882-2.258824 2.258824-2.258824 1.505882 0 2.258824 1.505882 2.258824 2.258824 0.752941 0.752941-0.752941 2.258824-2.258824 2.258823z m116.705882-2.258823c0-1.505882 0.752941-2.258824 2.258824-2.258824 1.505882 0 2.258824 0.752941 2.258823 2.258824 0 1.505882-0.752941 2.258824-2.258823 2.258823-0.752941 0-1.505882-1.505882-2.258824-2.258823z m-126.494117 2.258823c-1.505882 0-2.258824-1.505882-2.258824-2.258823 0-1.505882 1.505882-2.258824 2.258824-2.258824 1.505882 0 2.258824 1.505882 2.258823 2.258824 0.752941 0.752941-0.752941 2.258824-2.258823 2.258823z m137.035294-3.011764c0-1.505882 0.752941-2.258824 2.258823-2.258824 1.505882 0 2.258824 0.752941 2.258824 2.258824 0 1.505882-0.752941 2.258824-2.258824 2.258823-1.505882 0-2.258824-0.752941-2.258823-2.258823z m-149.082353 0c0-1.505882 1.505882-2.258824 2.258823-2.258824 1.505882 0 2.258824 1.505882 2.258824 2.258824 0 1.505882-1.505882 2.258824-2.258824 2.258823-1.505882 0-2.258824-0.752941-2.258823-2.258823z m158.870588 0c0-1.505882 0.752941-2.258824 2.258824-2.258824 1.505882 0 2.258824 0.752941 2.258823 2.258824 0 1.505882-0.752941 2.258824-2.258823 2.258823-1.505882 0-2.258824-0.752941-2.258824-2.258823z m-166.4 2.258823c-1.505882 0-2.258824-1.505882-2.258823-2.258823 0-1.505882 1.505882-2.258824 2.258823-2.258824 1.505882 0 2.258824 1.505882 2.258824 2.258824 0 1.505882-0.752941 2.258824-2.258824 2.258823z m176.188235-2.258823s0-0.752941 0 0c0-1.505882 0.752941-2.258824 2.258824-2.258824 1.505882 0 2.258824 0.752941 2.258823 2.258824 0 1.505882-0.752941 2.258824-2.258823 2.258823-0.752941 0-2.258824-1.505882-2.258824-2.258823z m-185.97647 2.258823c-1.505882 0-2.258824-0.752941-2.258824-2.258823 0-1.505882 1.505882-2.258824 2.258824-2.258824 1.505882 0 2.258824 0.752941 2.258823 2.258824 0 0.752941-0.752941 2.258824-2.258823 2.258823z m198.77647-0.752941c-1.505882 0-2.258824-0.752941-2.258823-2.258824 0-1.505882 0.752941-2.258824 2.258823-2.258823 1.505882 0 2.258824 0.752941 2.258824 2.258823 0 1.505882-1.505882 2.258824-2.258824 2.258824z m-209.317647 0c-1.505882 0-2.258824-1.505882-2.258823-2.258824 0-1.505882 1.505882-2.258824 2.258823-2.258823 1.505882 0 2.258824 1.505882 2.258824 2.258823 0.752941 1.505882-0.752941 2.258824-2.258824 2.258824z m219.105883 0c-1.505882 0-2.258824-0.752941-2.258824-2.258824 0-1.505882 0.752941-2.258824 2.258824-2.258823 1.505882 0 2.258824 0.752941 2.258823 2.258823 0 0.752941-0.752941 2.258824-2.258823 2.258824z m7.529411-3.011765c0-1.505882 0.752941-2.258824 2.258824-2.258823 1.505882 0 2.258824 0.752941 2.258824 2.258823 0 1.505882-0.752941 2.258824-2.258824 2.258824-1.505882 0-2.258824-0.752941-2.258824-2.258824z m9.788236-0.752941c0-1.505882 0.752941-2.258824 2.258823-2.258823 1.505882 0 2.258824 0.752941 2.258824 2.258823 0 1.505882-0.752941 2.258824-2.258824 2.258824-1.505882 0.752941-2.258824-0.752941-2.258823-2.258824z m9.788235 0c0-1.505882 0.752941-2.258824 2.258824-2.258823 1.505882 0 2.258824 0.752941 2.258823 2.258823 0 1.505882-0.752941 2.258824-2.258823 2.258824-1.505882 0-2.258824-1.505882-2.258824-2.258824z m9.788235-0.752941c0-1.505882 0.752941-2.258824 2.258824-2.258824 1.505882 0 2.258824 0.752941 2.258823 2.258824 0 1.505882-0.752941 2.258824-2.258823 2.258823-0.752941 0-2.258824-0.752941-2.258824-2.258823z m9.788236-0.752941c0-1.505882 0.752941-2.258824 2.258823-2.258824 1.505882 0 2.258824 0.752941 2.258824 2.258824 0 1.505882-0.752941 2.258824-2.258824 2.258823-0.752941 0-2.258824-0.752941-2.258823-2.258823z m9.788235-0.752941c0-1.505882 0.752941-2.258824 2.258823-3.011765 1.505882 0 2.258824 0.752941 3.011765 2.258823 0 1.505882-0.752941 2.258824-2.258823 2.258824-1.505882 0.752941-2.258824 0-3.011765-1.505882z m10.541176-0.752942c0-1.505882 0.752941-2.258824 2.258824-3.011764 1.505882 0 2.258824 0.752941 3.011765 2.258823 0 1.505882-0.752941 2.258824-2.258824 2.258824-2.258824 0.752941-3.011765 0-3.011765-1.505883z m9.788236-0.752941c0-1.505882 0.752941-2.258824 2.258823-3.011765 1.505882 0 2.258824 0.752941 3.011765 2.258824 0 1.505882-0.752941 2.258824-2.258824 2.258824-2.258824 0.752941-3.011765-0.752941-3.011764-1.505883z m9.788235-1.505882c0-1.505882 0.752941-2.258824 2.258824-3.011765 1.505882 0 2.258824 0.752941 3.011764 2.258824 0 1.505882-0.752941 2.258824-2.258823 2.258823-2.258824 0.752941-3.011765 0-3.011765-1.505882z m9.788235-0.752941c0-1.505882 0.752941-2.258824 2.258824-3.011765 1.505882 0 2.258824 0.752941 3.011765 2.258823 0 1.505882-0.752941 2.258824-2.258824 2.258824-1.505882 0.752941-3.011765 0-3.011765-1.505882z m9.788236-1.505883c0-1.505882 0.752941-2.258824 2.258823-3.011764 1.505882 0 2.258824 0.752941 3.011765 2.258823v0.752941c0 1.505882-0.752941 2.258824-2.258824 2.258824-1.505882 0-3.011765-0.752941-3.011764-2.258824z m9.788235-1.505882c0-1.505882 0.752941-2.258824 2.258823-3.011765 1.505882 0 2.258824 0.752941 3.011765 2.258824 0 1.505882-0.752941 2.258824-2.258823 2.258823h-0.752942c-0.752941 0.752941-2.258824 0-2.258823-1.505882z m9.788235-1.505882c0-1.505882 0.752941-3.011765 2.258824-3.011765 1.505882 0 2.258824 0.752941 3.011764 2.258823 0 1.505882-0.752941 2.258824-2.258823 2.258824h-0.752941c-0.752941 0.752941-2.258824 0-2.258824-1.505882z m9.788235-1.505883s0-0.752941 0 0c0-1.505882 0.752941-3.011765 2.258824-3.011764 1.505882 0 2.258824 0.752941 3.011765 2.258823v0.752941c0 1.505882-0.752941 2.258824-2.258824 2.258824h-0.752941c-0.752941-0.752941-2.258824-1.505882-2.258824-2.258824z m9.788236-2.258823s0-0.752941 0 0c0-1.505882 0.752941-3.011765 1.505882-3.011765 1.505882 0 3.011765 0.752941 3.011765 1.505882v0.752942c0 1.505882-0.752941 2.258824-2.258824 2.258823h-0.752941s-1.505882-0.752941-1.505882-1.505882z m9.788235-2.258824c0-0.752941 0-0.752941 0 0 0-1.505882 0.752941-3.011765 1.505882-3.011765 1.505882-0.752941 3.011765 0 3.011765 1.505883v0.752941c0 0.752941-0.752941 2.258824-1.505882 2.258824h-0.752941c-1.505882 0-2.258824-0.752941-2.258824-1.505883z m9.035294-3.011765V662.588235c0-0.752941 0.752941-2.258824 1.505883-2.258823 1.505882-0.752941 3.011765 0 3.011764 1.505882v0.752941c0 0.752941-0.752941 2.258824-1.505882 2.258824h-0.752941c-0.752941 0-1.505882-0.752941-2.258824-1.505883zM485.647059 740.894118c0-1.505882 0.752941-2.258824 2.258823-2.258824 1.505882 0 2.258824 1.505882 2.258824 2.258824 0 1.505882-1.505882 2.258824-2.258824 2.258823-1.505882 0-2.258824-0.752941-2.258823-2.258823z m9.788235 0c0-1.505882 0.752941-2.258824 2.258824-2.258824 1.505882 0 2.258824 0.752941 2.258823 2.258824 0 1.505882-0.752941 2.258824-2.258823 2.258823-1.505882 0-2.258824-0.752941-2.258824-2.258823z m-17.317647 2.258823c-1.505882 0-2.258824-1.505882-2.258823-2.258823 0-1.505882 1.505882-2.258824 2.258823-2.258824 1.505882 0 2.258824 1.505882 2.258824 2.258824 0 1.505882-1.505882 2.258824-2.258824 2.258823z m27.105882-2.258823c0-1.505882 0.752941-2.258824 2.258824-2.258824 1.505882 0 2.258824 0.752941 2.258823 2.258824 0 1.505882-0.752941 2.258824-2.258823 2.258823-1.505882 0-2.258824-0.752941-2.258824-2.258823z m-37.647058 2.258823c-1.505882 0-2.258824-1.505882-2.258824-2.258823 0-1.505882 1.505882-2.258824 2.258824-2.258824 1.505882 0 2.258824 1.505882 2.258823 2.258824 0.752941 1.505882-0.752941 2.258824-2.258823 2.258823z m47.435294-2.258823c0-1.505882 0.752941-2.258824 2.258823-2.258824 1.505882 0 2.258824 0.752941 2.258824 2.258824 0 1.505882-0.752941 2.258824-2.258824 2.258823-0.752941 0-2.258824-1.505882-2.258823-2.258823z m-57.22353 2.258823c-1.505882 0-2.258824-1.505882-2.258823-2.258823 0-1.505882 1.505882-2.258824 2.258823-2.258824 1.505882 0 2.258824 0.752941 2.258824 2.258824 0 0.752941-0.752941 2.258824-2.258824 2.258823z m67.011765-3.011765c0-1.505882 0.752941-2.258824 2.258824-2.258823 1.505882 0 2.258824 0.752941 2.258823 2.258823 0 1.505882-0.752941 2.258824-2.258823 2.258824-0.752941 0.752941-2.258824-0.752941-2.258824-2.258824z m-76.8 2.258824c-1.505882 0-2.258824-1.505882-2.258824-2.258824 0-1.505882 1.505882-2.258824 2.258824-2.258823 1.505882 0 2.258824 0.752941 2.258824 2.258823 0 1.505882-0.752941 2.258824-2.258824 2.258824z m86.588235-2.258824c0-1.505882 0.752941-2.258824 2.258824-2.258823 1.505882 0 2.258824 0.752941 2.258823 2.258823 0 1.505882-0.752941 2.258824-2.258823 2.258824-0.752941 0-2.258824-0.752941-2.258824-2.258824z m-96.37647 2.258824c-1.505882 0-2.258824-1.505882-2.258824-2.258824 0-1.505882 1.505882-2.258824 2.258824-2.258823 1.505882 0 2.258824 1.505882 2.258823 2.258823 0 0.752941-0.752941 2.258824-2.258823 2.258824z m106.917647-3.011765c0-1.505882 0.752941-2.258824 2.258823-2.258823 1.505882 0 2.258824 0.752941 2.258824 2.258823 0 1.505882-0.752941 2.258824-2.258824 2.258824-1.505882 0.752941-2.258824-0.752941-2.258823-2.258824z m-116.705883 2.258824c-1.505882 0-2.258824-1.505882-2.258823-2.258824 0-1.505882 1.505882-2.258824 2.258823-2.258823 1.505882 0 2.258824 1.505882 2.258824 2.258823 0 1.505882-0.752941 2.258824-2.258824 2.258824z m126.494118-2.258824c0-1.505882 0.752941-2.258824 2.258824-2.258823 1.505882 0 2.258824 0.752941 2.258823 2.258823 0 1.505882-0.752941 2.258824-2.258823 2.258824-1.505882 0-2.258824-0.752941-2.258824-2.258824z m-137.035294 1.505883c-1.505882 0-2.258824-1.505882-2.258824-2.258824 0-1.505882 1.505882-2.258824 3.011765-2.258823s2.258824 1.505882 2.258824 2.258823c0 1.505882-1.505882 2.258824-3.011765 2.258824 0.752941 0 0 0 0 0z m146.823529-2.258824c0-1.505882 0.752941-2.258824 2.258824-2.258823 1.505882 0 2.258824 0.752941 2.258823 2.258823 0 1.505882-0.752941 2.258824-2.258823 2.258824-1.505882 0-2.258824-0.752941-2.258824-2.258824zM405.835294 737.882353c0-1.505882 1.505882-2.258824 2.258824-2.258824 1.505882 0 2.258824 1.505882 2.258823 2.258824 0 1.505882-1.505882 2.258824-2.258823 2.258823-1.505882 0-2.258824-0.752941-2.258824-2.258823z m168.658824 0c0-1.505882 0.752941-2.258824 2.258823-2.258824 1.505882 0 2.258824 0.752941 2.258824 2.258824 0 1.505882-0.752941 2.258824-2.258824 2.258823-0.752941 0-2.258824-0.752941-2.258823-2.258823z m-178.447059-0.752941c0-1.505882 1.505882-2.258824 3.011765-2.258824s2.258824 1.505882 2.258823 2.258824c0 1.505882-1.505882 2.258824-2.258823 2.258823-2.258824 0-3.011765-0.752941-3.011765-2.258823z m188.235294 0c0-1.505882 0.752941-2.258824 2.258823-3.011765 1.505882 0 2.258824 0.752941 3.011765 2.258824 0 1.505882-0.752941 2.258824-2.258823 2.258823-1.505882 0.752941-3.011765 0-3.011765-1.505882z m-195.764706 1.505882c-1.505882 0-2.258824-1.505882-2.258823-2.258823 0-1.505882 1.505882-2.258824 3.011764-2.258824s2.258824 1.505882 2.258824 2.258824c-0.752941 1.505882-1.505882 2.258824-3.011765 2.258823z m205.552941-2.258823c0-1.505882 0.752941-2.258824 2.258824-3.011765 1.505882 0 2.258824 0.752941 3.011764 2.258823 0 1.505882-0.752941 2.258824-2.258823 2.258824-1.505882 0.752941-3.011765 0-3.011765-1.505882z m-106.164706 2.258823z m115.952942-3.011765c0-1.505882 0.752941-2.258824 2.258823-3.011764 1.505882 0 2.258824 0.752941 3.011765 2.258823 0 1.505882-0.752941 2.258824-2.258824 2.258824-1.505882 0.752941-2.258824 0-3.011764-1.505883z m-225.129412 2.258824c-1.505882 0-2.258824-1.505882-2.258824-2.258824 0-1.505882 1.505882-2.258824 3.011765-2.258823s2.258824 1.505882 2.258823 2.258823c-0.752941 1.505882-1.505882 2.258824-3.011764 2.258824z m235.670588-3.011765c0-1.505882 0.752941-2.258824 2.258824-3.011764 1.505882 0 2.258824 0.752941 3.011764 2.258823 0 1.505882-0.752941 2.258824-2.258823 2.258824-2.258824 0.752941-3.011765 0-3.011765-1.505883z m-245.458824 2.258824c-1.505882 0-2.258824-1.505882-2.258823-2.258824 0-1.505882 1.505882-2.258824 3.011765-2.258823s2.258824 1.505882 2.258823 2.258823c-0.752941 1.505882-1.505882 2.258824-3.011765 2.258824z m255.247059-3.011765c0-1.505882 0.752941-2.258824 2.258824-3.011765 1.505882 0 2.258824 0.752941 3.011765 2.258824 0 1.505882-0.752941 2.258824-2.258824 2.258823-2.258824 0.752941-3.011765 0-3.011765-1.505882z m-265.788235 1.505882c-1.505882 0-2.258824-1.505882-2.258824-2.258823 0-1.505882 1.505882-2.258824 3.011765-2.258824s2.258824 1.505882 2.258824 2.258824c0 1.505882-1.505882 2.258824-3.011765 2.258823 0.752941 0 0.752941 0 0 0z m275.576471-3.011764c0-1.505882 0.752941-2.258824 2.258823-3.011765 1.505882 0 2.258824 0.752941 3.011765 2.258824 0 1.505882-0.752941 2.258824-2.258824 2.258823-2.258824 0.752941-3.011765 0-3.011764-1.505882z m-285.364706 2.258823c-1.505882 0-2.258824-1.505882-2.258824-2.258823 0-1.505882 1.505882-2.258824 3.011765-2.258824s2.258824 1.505882 2.258823 2.258824v0.752941c0 0.752941-1.505882 1.505882-3.011764 1.505882 0.752941 0 0 0 0 0z m295.152941-3.011764c0-1.505882 0.752941-2.258824 2.258823-3.011765 1.505882 0 2.258824 0.752941 3.011765 2.258823 0 1.505882-0.752941 2.258824-2.258823 2.258824-1.505882 0.752941-3.011765 0-3.011765-1.505882z m-304.941177 1.505882c-1.505882 0-2.258824-1.505882-2.258823-2.258824V730.352941c0-1.505882 1.505882-2.258824 3.011765-2.258823s2.258824 1.505882 2.258823 2.258823c0 2.258824-1.505882 3.011765-3.011765 3.011765z m314.729412-3.011765c0-1.505882 0.752941-2.258824 2.258824-3.011765 1.505882 0 2.258824 0.752941 3.011764 2.258824 0 1.505882-0.752941 2.258824-2.258823 2.258824-1.505882 0.752941-3.011765 0-3.011765-1.505883z m-324.517647 1.505883c-1.505882 0-2.258824-1.505882-2.258823-2.258824v-0.752941c0-1.505882 1.505882-2.258824 3.011764-2.258824s2.258824 1.505882 2.258824 2.258824v0.752941c0 1.505882-1.505882 2.258824-3.011765 2.258824z m334.305882-2.258824c0-1.505882 0.752941-2.258824 2.258824-3.011765 1.505882 0 2.258824 0.752941 3.011765 2.258824v0.752941c0 1.505882-0.752941 2.258824-2.258824 2.258824-1.505882 0-3.011765-1.505882-3.011765-2.258824z m-344.094117 0.752941c-1.505882 0-2.258824-1.505882-2.258824-2.258823v-0.752942c0-1.505882 1.505882-2.258824 3.011765-2.258823s2.258824 1.505882 2.258824 2.258823v0.752942c0 1.505882-1.505882 2.258824-3.011765 2.258823z m353.882353-2.258823c0-1.505882 0.752941-2.258824 2.258823-3.011765 1.505882 0 2.258824 0.752941 3.011765 2.258823v0.752942c0 1.505882-0.752941 2.258824-2.258824 2.258823-1.505882 0-3.011765-0.752941-3.011764-2.258823z m9.788235-1.505883c0-1.505882 0.752941-2.258824 2.258824-3.011764 1.505882 0 2.258824 0.752941 3.011764 2.258823v0.752941c0 1.505882-0.752941 2.258824-2.258823 2.258824h-0.752941c-0.752941 0-2.258824-0.752941-2.258824-2.258824z m-373.458823 2.258824c-1.505882 0-2.258824-1.505882-2.258824-2.258824 0-1.505882 1.505882-2.258824 3.011765-2.258823s2.258824 1.505882 2.258823 2.258823v0.752941c0 0.752941-1.505882 1.505882-3.011764 1.505883z m383.247058-3.764706c0-1.505882 0.752941-3.011765 2.258824-3.011765 1.505882 0 2.258824 0.752941 3.011765 2.258824 0 1.505882-0.752941 2.258824-2.258824 2.258823-1.505882 0.752941-2.258824 0-3.011765-1.505882z m-393.035294 1.505882c-1.505882 0-2.258824-1.505882-2.258823-2.258823v-0.752941c0-1.505882 1.505882-2.258824 3.011764-2.258824s2.258824 1.505882 2.258824 2.258824v0.752941c0 1.505882-1.505882 2.258824-3.011765 2.258823z m402.82353-3.011764c0-1.505882 0.752941-3.011765 2.258823-3.011765 1.505882 0 2.258824 0.752941 3.011765 2.258823v0.752942c0 1.505882-0.752941 2.258824-2.258824 2.258823h-0.752941c-0.752941 0-1.505882-0.752941-2.258823-2.258823z m-412.611765 1.505882c-1.505882 0-2.258" fill="#FFFFFF" p-id="3636"></path></svg>